<svg xmlns="http://www.w3.org/2000/svg" viewBox="0 0 200 320" fill="currentColor">
  <path d="M100,8 C112,10 128,18 138,30 C150,44 156,58 158,72 C162,88 160,102 155,118 C160,126 164,136 164,148 C164,162 158,176 150,188 C154,196 156,206 154,216 C150,232 140,246 128,256 C120,264 110,270 100,274 C90,270 80,264 72,256 C60,246 50,232 46,216 C44,206 46,196 50,188 C42,176 36,162 36,148 C36,136 40,126 45,118 C40,102 38,88 42,72 C44,58 50,44 62,30 C72,18 88,10 100,8 Z
  M95,274 C90,282 84,292 82,302 C88,308 94,312 100,312 C106,312 112,308 118,302 C116,292 110,282 105,274 Z"/>
</svg>
